<mxfile host="Electron" modified="2023-08-08T15:49:10.177Z" agent="Mozilla/5.0 (Windows NT 10.0; Win64; x64) AppleWebKit/537.36 (KHTML, like Gecko) draw.io/21.6.1 Chrome/112.0.5615.204 Electron/24.6.1 Safari/537.36" etag="CpJUiPfxye_BH9TUdB4B" version="21.6.1" type="device">
  <diagram name="第 1 页" id="bB537N-INVUiUfxHYbDp">
    <mxGraphModel dx="1430" dy="830" grid="1" gridSize="10" guides="1" tooltips="1" connect="1" arrows="1" fold="1" page="1" pageScale="1" pageWidth="827" pageHeight="1169" math="0" shadow="0">
      <root>
        <mxCell id="0" />
        <mxCell id="1" parent="0" />
        <mxCell id="z6ol4XUJVwE9SGW8FS7L-15" style="edgeStyle=orthogonalEdgeStyle;rounded=0;orthogonalLoop=1;jettySize=auto;html=1;exitX=0.5;exitY=1;exitDx=0;exitDy=0;entryX=0.5;entryY=0;entryDx=0;entryDy=0;" edge="1" parent="1" source="z6ol4XUJVwE9SGW8FS7L-1" target="z6ol4XUJVwE9SGW8FS7L-8">
          <mxGeometry relative="1" as="geometry" />
        </mxCell>
        <mxCell id="z6ol4XUJVwE9SGW8FS7L-18" style="edgeStyle=orthogonalEdgeStyle;rounded=0;orthogonalLoop=1;jettySize=auto;html=1;exitX=0.5;exitY=1;exitDx=0;exitDy=0;entryX=0.5;entryY=0;entryDx=0;entryDy=0;" edge="1" parent="1" source="z6ol4XUJVwE9SGW8FS7L-1" target="z6ol4XUJVwE9SGW8FS7L-5">
          <mxGeometry relative="1" as="geometry" />
        </mxCell>
        <mxCell id="z6ol4XUJVwE9SGW8FS7L-19" style="edgeStyle=orthogonalEdgeStyle;rounded=0;orthogonalLoop=1;jettySize=auto;html=1;exitX=0.5;exitY=1;exitDx=0;exitDy=0;" edge="1" parent="1" source="z6ol4XUJVwE9SGW8FS7L-1" target="z6ol4XUJVwE9SGW8FS7L-9">
          <mxGeometry relative="1" as="geometry" />
        </mxCell>
        <mxCell id="z6ol4XUJVwE9SGW8FS7L-22" style="edgeStyle=orthogonalEdgeStyle;rounded=0;orthogonalLoop=1;jettySize=auto;html=1;exitX=0.5;exitY=1;exitDx=0;exitDy=0;entryX=1;entryY=0.5;entryDx=0;entryDy=0;" edge="1" parent="1" source="z6ol4XUJVwE9SGW8FS7L-1" target="z6ol4XUJVwE9SGW8FS7L-10">
          <mxGeometry relative="1" as="geometry">
            <mxPoint x="670" y="580" as="targetPoint" />
            <Array as="points">
              <mxPoint x="382" y="560" />
              <mxPoint x="580" y="560" />
              <mxPoint x="580" y="640" />
            </Array>
          </mxGeometry>
        </mxCell>
        <mxCell id="z6ol4XUJVwE9SGW8FS7L-1" value="Conv2d_BN_SiLU" style="rounded=0;whiteSpace=wrap;html=1;fillColor=#dae8fc;strokeColor=#6c8ebf;" vertex="1" parent="1">
          <mxGeometry x="315" y="520" width="135" height="20" as="geometry" />
        </mxCell>
        <mxCell id="z6ol4XUJVwE9SGW8FS7L-20" style="edgeStyle=orthogonalEdgeStyle;rounded=0;orthogonalLoop=1;jettySize=auto;html=1;exitX=0.5;exitY=1;exitDx=0;exitDy=0;entryX=0;entryY=0.5;entryDx=0;entryDy=0;" edge="1" parent="1" source="z6ol4XUJVwE9SGW8FS7L-5" target="z6ol4XUJVwE9SGW8FS7L-10">
          <mxGeometry relative="1" as="geometry" />
        </mxCell>
        <mxCell id="z6ol4XUJVwE9SGW8FS7L-5" value="Maxpooling(k=6)" style="rounded=0;whiteSpace=wrap;html=1;fillColor=#fff2cc;strokeColor=#d6b656;" vertex="1" parent="1">
          <mxGeometry x="210" y="580" width="100" height="20" as="geometry" />
        </mxCell>
        <mxCell id="z6ol4XUJVwE9SGW8FS7L-16" style="edgeStyle=orthogonalEdgeStyle;rounded=0;orthogonalLoop=1;jettySize=auto;html=1;exitX=0.5;exitY=1;exitDx=0;exitDy=0;entryX=0.5;entryY=0;entryDx=0;entryDy=0;" edge="1" parent="1" source="z6ol4XUJVwE9SGW8FS7L-8" target="z6ol4XUJVwE9SGW8FS7L-10">
          <mxGeometry relative="1" as="geometry" />
        </mxCell>
        <mxCell id="z6ol4XUJVwE9SGW8FS7L-8" value="Maxpooling(k=9)" style="rounded=0;whiteSpace=wrap;html=1;fillColor=#fff2cc;strokeColor=#d6b656;" vertex="1" parent="1">
          <mxGeometry x="332" y="580" width="100" height="20" as="geometry" />
        </mxCell>
        <mxCell id="z6ol4XUJVwE9SGW8FS7L-21" style="edgeStyle=orthogonalEdgeStyle;rounded=0;orthogonalLoop=1;jettySize=auto;html=1;exitX=0.5;exitY=1;exitDx=0;exitDy=0;entryX=1;entryY=0.5;entryDx=0;entryDy=0;" edge="1" parent="1" source="z6ol4XUJVwE9SGW8FS7L-9" target="z6ol4XUJVwE9SGW8FS7L-10">
          <mxGeometry relative="1" as="geometry" />
        </mxCell>
        <mxCell id="z6ol4XUJVwE9SGW8FS7L-9" value="Maxpooling(k=13)" style="rounded=0;whiteSpace=wrap;html=1;fillColor=#fff2cc;strokeColor=#d6b656;" vertex="1" parent="1">
          <mxGeometry x="454" y="580" width="100" height="20" as="geometry" />
        </mxCell>
        <mxCell id="z6ol4XUJVwE9SGW8FS7L-17" style="edgeStyle=orthogonalEdgeStyle;rounded=0;orthogonalLoop=1;jettySize=auto;html=1;exitX=0.5;exitY=1;exitDx=0;exitDy=0;entryX=0.5;entryY=0;entryDx=0;entryDy=0;" edge="1" parent="1" source="z6ol4XUJVwE9SGW8FS7L-10">
          <mxGeometry relative="1" as="geometry">
            <mxPoint x="382.5" y="670" as="targetPoint" />
          </mxGeometry>
        </mxCell>
        <mxCell id="z6ol4XUJVwE9SGW8FS7L-10" value="concat" style="rounded=0;whiteSpace=wrap;html=1;rotation=0;fillColor=#e1d5e7;strokeColor=#9673a6;" vertex="1" parent="1">
          <mxGeometry x="352.5" y="630" width="60" height="20" as="geometry" />
        </mxCell>
        <mxCell id="z6ol4XUJVwE9SGW8FS7L-64" value="Conv2d_BN_SiLU" style="rounded=0;whiteSpace=wrap;html=1;fillColor=#dae8fc;strokeColor=#6c8ebf;" vertex="1" parent="1">
          <mxGeometry x="314.5" y="670" width="135" height="20" as="geometry" />
        </mxCell>
      </root>
    </mxGraphModel>
  </diagram>
</mxfile>
